<svg xml:space="preserve" viewBox="0 0 100 100" y="0" x="0" xmlns="http://www.w3.org/2000/svg" id="圖層_1" version="1.1" preserveAspectRatio="xMidYMid" width="200" height="200" xmlns:xlink="http://www.w3.org/1999/xlink" style="margin-top:0px;margin-right:0px;margin-bottom:0px;margin-left:0px;display:block;shape-rendering:auto;background-position-x:0%;background-position-y:0%;background-size:auto;background-origin:padding-box;background-clip:border-box;background:scroll rgba(0, 0, 0, 0) none  repeat;width:200px;height:200px;;animation:none"><g class="ldl-scale" style="transform-origin:50px 50px;transform:matrix(0.8, 0, 0, 0.8, 0, 0);;animation:none"><g class="ldl-ani"><g class="ldl-layer"><g class="ldl-ani"><g><g class="ldl-layer"><g class="ldl-ani" style="transform-origin:50px 50px;transform:matrix(1.03, 0, 0, 1.03, 0, 0);animation-duration:1s;animation-timing-function:linear;animation-delay:-0.5625s;animation-iteration-count:infinite;animation-direction:normal;animation-fill-mode:forwards;animation-play-state:paused;animation-name:animate;animation-timeline:auto;animation-range-start:normal;animation-range-end:normal;transform-box:view-box;;animation:none"><path d="M50 76.5c-1.1 0-2-.9-2-2v-9.7c0-1.1.9-2 2-2s2 .9 2 2v9.7c0 1.1-.9 2-2 2z" style="stroke-width:1px;fill:rgb(0, 238, 255);;animation:none"></path></g></g></g></g></g>
<g class="ldl-layer"><g class="ldl-ani"><g><g class="ldl-layer"><g class="ldl-ani" style="transform-origin:50px 50px;transform:matrix(1.01568, 0, 0, 1.01568, 0, 0);animation-duration:1s;animation-timing-function:linear;animation-delay:-0.625s;animation-iteration-count:infinite;animation-direction:normal;animation-fill-mode:forwards;animation-play-state:paused;animation-name:animate;animation-timeline:auto;animation-range-start:normal;animation-range-end:normal;transform-box:view-box;;animation:none"><path d="M34.2 73.6c-.2 0-.4 0-.7-.1-1-.4-1.6-1.5-1.2-2.6l3.2-9c.4-1 1.5-1.6 2.6-1.2 1 .4 1.6 1.5 1.2 2.6l-3.2 9c-.3.8-1.1 1.3-1.9 1.3z" style="stroke-width:1px;fill:rgb(0, 238, 255);;animation:none"></path></g></g></g></g></g>
<g class="ldl-layer"><g class="ldl-ani"><g><g class="ldl-layer"><g class="ldl-ani" style="transform-origin:50px 50px;transform:matrix(0.99625, 0, 0, 0.99625, 0, 0);animation-duration:1s;animation-timing-function:linear;animation-delay:-0.6875s;animation-iteration-count:infinite;animation-direction:normal;animation-fill-mode:forwards;animation-play-state:paused;animation-name:animate;animation-timeline:auto;animation-range-start:normal;animation-range-end:normal;transform-box:view-box;;animation:none"><path d="M21.1 67.8c-.4 0-.8-.1-1.1-.3-.9-.6-1.2-1.9-.5-2.8l5.3-7.8c.6-.9 1.9-1.2 2.8-.5.9.6 1.2 1.9.5 2.8L22.8 67c-.4.5-1 .8-1.7.8z" style="stroke-width:1px;fill:rgb(0, 238, 255);;animation:none"></path></g></g></g></g></g>
<g class="ldl-layer"><g class="ldl-ani"><g><g class="ldl-layer"><g class="ldl-ani" style="transform-origin:50px 50px;transform:matrix(0.97254, 0, 0, 0.97254, 0, 0);animation-duration:1s;animation-timing-function:linear;animation-delay:-0.75s;animation-iteration-count:infinite;animation-direction:normal;animation-fill-mode:forwards;animation-play-state:paused;animation-name:animate;animation-timeline:auto;animation-range-start:normal;animation-range-end:normal;transform-box:view-box;;animation:none"><path d="M7.9 59c-.6 0-1.1-.2-1.5-.7-.7-.8-.6-2.1.2-2.8l7.7-6.7c.8-.7 2.1-.6 2.8.2.7.8.6 2.1-.2 2.8l-7.7 6.7c-.3.3-.8.5-1.3.5z" style="stroke-width:1px;fill:rgb(0, 238, 255);;animation:none"></path></g></g></g></g></g>
<g class="ldl-layer"><g class="ldl-ani"><g><g class="ldl-layer"><g class="ldl-ani" style="transform-origin:50px 50px;transform:matrix(0.943634, 0, 0, 0.943634, 0, 0);animation-duration:1s;animation-timing-function:linear;animation-delay:-0.8125s;animation-iteration-count:infinite;animation-direction:normal;animation-fill-mode:forwards;animation-play-state:paused;animation-name:animate;animation-timeline:auto;animation-range-start:normal;animation-range-end:normal;transform-box:view-box;;animation:none"><path d="M65.6 73.6c-.8 0-1.6-.5-1.9-1.3l-3.2-9c-.4-1 .2-2.2 1.2-2.6 1-.4 2.2.2 2.6 1.2l3.2 9c.4 1-.2 2.2-1.2 2.6-.2.1-.5.1-.7.1z" style="stroke-width:1px;fill:rgb(0, 238, 255);;animation:none"></path></g></g></g></g></g>
<g class="ldl-layer"><g class="ldl-ani"><g><g class="ldl-layer"><g class="ldl-ani" style="transform-origin:50px 50px;transform:matrix(0.921517, 0, 0, 0.921517, 0, 0);animation-duration:1s;animation-timing-function:linear;animation-delay:-0.875s;animation-iteration-count:infinite;animation-direction:normal;animation-fill-mode:forwards;animation-play-state:paused;animation-name:animate;animation-timeline:auto;animation-range-start:normal;animation-range-end:normal;transform-box:view-box;;animation:none"><path d="M79.2 67.8c-.6 0-1.2-.3-1.6-.8l-5.8-7.8c-.7-.9-.5-2.1.4-2.8.9-.7 2.1-.5 2.8.4l5.8 7.8c.7.9.5 2.1-.4 2.8-.4.3-.8.4-1.2.4z" style="stroke-width:1px;fill:rgb(0, 238, 255);;animation:none"></path></g></g></g></g></g>
<g class="ldl-layer"><g class="ldl-ani"><g><g class="ldl-layer"><g class="ldl-ani" style="transform-origin:50px 50px;transform:matrix(0.910362, 0, 0, 0.910362, 0, 0);animation-duration:1s;animation-timing-function:linear;animation-delay:-0.9375s;animation-iteration-count:infinite;animation-direction:normal;animation-fill-mode:forwards;animation-play-state:paused;animation-name:animate;animation-timeline:auto;animation-range-start:normal;animation-range-end:normal;transform-box:view-box;;animation:none"><path d="M91.9 59c-.5 0-.9-.2-1.3-.5l-7.7-6.7c-.8-.7-.9-2-.2-2.8.7-.8 2-.9 2.8-.2l7.7 6.7c.8.7.9 2 .2 2.8-.4.4-1 .7-1.5.7z" style="stroke-width:1px;fill:rgb(0, 238, 255);;animation:none"></path></g></g></g></g></g>
<g class="ldl-layer"><g class="ldl-ani"><g><g class="ldl-layer"><g class="ldl-ani" style="transform-origin:50px 50px;transform:matrix(0.91, 0, 0, 0.91, 0, 0);animation-duration:1s;animation-timing-function:linear;animation-delay:-1s;animation-iteration-count:infinite;animation-direction:normal;animation-fill-mode:forwards;animation-play-state:paused;animation-name:animate;animation-timeline:auto;animation-range-start:normal;animation-range-end:normal;transform-box:view-box;;animation:none"><path d="M50 67.2c-20 0-36.6-15.4-41.2-20.1l-.1-.1c-.4-.4-1-1-1.4-1.9-.6-1.3 0-2.7 1.2-3.3 1.3-.6 2.7 0 3.3 1.2 0 .1.3.3.4.4l.2.2C16.6 47.9 32 62.2 50 62.2S83.4 48 87.6 43.6l.2-.2.5-.5c.6-1.3 2-1.8 3.3-1.3 1.3.6 1.8 2.1 1.3 3.3-.4.9-1 1.5-1.5 1.9l-.1.1C86.6 51.8 70 67.2 50 67.2z" style="stroke-width:1px;fill:rgb(0, 238, 255);;animation:none"></path></g></g></g></g></g>
<metadata xmlns:d="https://loading.io/stock/"></metadata></g></g>
<STYLE type="text/css">@keyframes animate { 0.00% {transform: translate(0.00px,0.00px) rotate(0.00deg) scale(0.91, 0.91) skew(0deg, 0.00deg) ;opacity: 1.00;}4.00% {transform: translate(0.00px,0.00px) rotate(0.00deg) scale(0.91, 0.91) ;}8.00% {animation-timing-function: cubic-bezier(0.69,0.60,0.35,0.27);transform: translate(0.00px,0.00px) rotate(0.00deg) scale(0.91, 0.91) ;}14.00% {transform: translate(0.00px,0.00px) rotate(0.00deg) scale(0.93, 0.93) ;}18.00% {transform: translate(0.00px,0.00px) rotate(0.00deg) scale(0.94, 0.94) ;}22.00% {animation-timing-function: cubic-bezier(0.67,0.66,0.34,0.33);transform: translate(0.00px,0.00px) rotate(0.00deg) scale(0.96, 0.96) ;}26.00% {transform: translate(0.00px,0.00px) rotate(0.00deg) scale(0.97, 0.97) ;}30.00% {transform: translate(0.00px,0.00px) rotate(0.00deg) scale(0.99, 0.99) ;}34.00% {animation-timing-function: cubic-bezier(0.65,0.71,0.32,0.38);transform: translate(0.00px,0.00px) rotate(0.00deg) scale(1.01, 1.01) ;}40.00% {animation-timing-function: cubic-bezier(0.64,0.74,0.31,0.41);transform: translate(0.00px,0.00px) rotate(0.00deg) scale(1.02, 1.02) ;}46.00% {animation-timing-function: cubic-bezier(0.60,0.91,0.23,0.63);transform: translate(0.00px,0.00px) rotate(0.00deg) scale(1.03, 1.03) ;}50.00% {transform: translate(0.00px,0.00px) rotate(0.00deg) scale(1.03, 1.03) ;}54.00% {transform: translate(0.00px,0.00px) rotate(0.00deg) scale(1.03, 1.03) ;}58.00% {animation-timing-function: cubic-bezier(0.69,0.60,0.35,0.27);transform: translate(0.00px,0.00px) rotate(0.00deg) scale(1.03, 1.03) ;}64.00% {transform: translate(0.00px,0.00px) rotate(0.00deg) scale(1.01, 1.01) ;}68.00% {transform: translate(0.00px,0.00px) rotate(0.00deg) scale(1.00, 1.00) ;}72.00% {animation-timing-function: cubic-bezier(0.67,0.66,0.34,0.33);transform: translate(0.00px,0.00px) rotate(0.00deg) scale(0.98, 0.98) ;}76.00% {animation-timing-function: cubic-bezier(0.66,0.68,0.33,0.35);transform: translate(0.00px,0.00px) rotate(0.00deg) scale(0.97, 0.97) ;}82.00% {animation-timing-function: cubic-bezier(0.65,0.71,0.32,0.38);transform: translate(0.00px,0.00px) rotate(0.00deg) scale(0.94, 0.94) ;}88.00% {animation-timing-function: cubic-bezier(0.65,0.73,0.31,0.40);transform: translate(0.00px,0.00px) rotate(0.00deg) scale(0.92, 0.92) ;}94.00% {animation-timing-function: cubic-bezier(0.63,0.80,0.28,0.48);transform: translate(0.00px,0.00px) rotate(0.00deg) scale(0.91, 0.91) ;}100.00% {animation-timing-function: cubic-bezier(0.63,0.80,0.28,0.48);transform: translate(0.00px,0.00px) rotate(0.00deg) scale(0.91, 0.91) ;} }</STYLE><!-- [ldio] generated by https://loading.io --></svg>